# xmcd CD database file
#
# Track frame offsets:
#	150
#	26854
#	82581
#	111093
#	136951
#	174671
#	202881
#	226358
#	258450
#
# Disc length: 3706 seconds
#
# Revision: 0
# Processed by: cddbd v1.5.2PL0 Copyright (c) Steve Scherf et al.
# Submitted via: CDex 1.51
#
DISCID=6e0e7809
DTITLE=Bill Carothers - Home Row
DYEAR=1992
DGENRE=Jazz
TTITLE0=When Will The Blues Leave
TTITLE1=Jesus' Last Ballad
TTITLE2=A Squirrel's Tale
TTITLE3=Hope Song
TTITLE4=My Heart Belongs To Daddy
TTITLE5=Off Minor
TTITLE6=Lost In The Stars
TTITLE7=Home Row
TTITLE8=Ballad Of Billy Milwaukee
EXTD=YEAR: 1992
EXTT0=
EXTT1=
EXTT2=
EXTT3=
EXTT4=
EXTT5=
EXTT6=
EXTT7=
EXTT8=
PLAYORDER=
